<svg width="360" height="260" viewBox="0 0 360 260" fill="none" xmlns="http://www.w3.org/2000/svg">
<g filter="url(#filter0_d_21_3566)">
<mask id="mask0_21_3566" style="mask-type:luminance" maskUnits="userSpaceOnUse" x="-19" y="0" width="399" height="224">
<path d="M379.222 0H-19V224H379.222V0Z" fill="white"/>
</mask>
<g mask="url(#mask0_21_3566)">
<path d="M264.581 75.4963V160.948C264.581 163.237 263.016 165.096 261.088 165.096H96.9076C94.9797 165.096 93.4144 163.237 93.4144 160.948V75.4963C93.4144 73.2069 94.9797 71.3481 96.9076 71.3481H261.088C263.016 71.3481 264.581 73.2069 264.581 75.4963Z" fill="white"/>
<path d="M264.581 75.4963V160.948C264.581 163.237 263.016 165.096 261.088 165.096H96.9076C94.9797 165.096 93.4144 163.237 93.4144 160.948V75.4963C93.4144 73.2069 94.9797 71.3481 96.9076 71.3481H261.088C263.016 71.3481 264.581 73.2069 264.581 75.4963Z" stroke="#0A0A0A" stroke-width="11.012"/>
<path d="M248.672 156.956L219.575 156.874C217.036 156.867 214.964 154.784 214.971 152.245C214.978 149.706 217.062 147.634 219.601 147.641L248.698 147.723C251.237 147.731 253.309 149.814 253.302 152.353C253.295 154.892 251.211 156.964 248.672 156.956Z" fill="#8E9EBF"/>
<path d="M157.884 109.398L114.646 109.174C110.873 109.154 107.787 107.061 107.788 104.522C107.789 101.983 110.876 99.9212 114.649 99.9408L157.887 100.165C161.66 100.184 164.746 102.278 164.745 104.817C164.745 107.356 161.657 109.417 157.884 109.398Z" fill="#8E9EBF"/>
<path d="M142.767 123.716L113.669 123.702C111.13 123.7 109.054 121.622 109.055 119.083C109.057 116.544 111.135 114.467 113.674 114.469L142.772 114.483C145.311 114.484 147.387 116.563 147.386 119.102C147.384 121.641 145.306 123.717 142.767 123.716Z" fill="#8E9EBF"/>
<path d="M142.051 94.8187L112.953 94.8442C110.414 94.8464 108.334 92.7708 108.332 90.2317C108.33 87.6927 110.406 85.6134 112.945 85.6112L142.042 85.5859C144.582 85.5835 146.661 87.6592 146.663 90.1982C146.665 92.7374 144.59 94.8165 142.051 94.8187Z" fill="#8E9EBF"/>
<path d="M248.664 148.272L219.566 148.137C217.027 148.125 214.959 146.038 214.971 143.498C214.983 140.959 217.07 138.892 219.609 138.904L248.707 139.039C251.246 139.051 253.313 141.138 253.301 143.677C253.29 146.216 251.203 148.284 248.664 148.272Z" fill="#8E9EBF"/>
<path d="M248.599 101.804L219.503 101.463C216.965 101.433 214.912 99.3311 214.941 96.7921C214.971 94.2533 217.073 92.2005 219.612 92.2304L248.707 92.5715C251.246 92.6011 253.299 94.703 253.269 97.2418C253.24 99.7808 251.138 101.834 248.599 101.804Z" fill="#8E9EBF"/>
<path d="M38.6146 108.376L43.605 151.736C44.0405 155.52 41.3011 158.972 37.5176 159.407C33.7341 159.843 30.282 157.104 29.8466 153.32L24.8562 109.959C24.4208 106.176 27.1603 102.724 30.9438 102.288C34.7276 101.853 38.1792 104.592 38.6146 108.376Z" fill="#707070"/>
<path d="M39.3272 146.612L97.9759 180.713C101.268 182.628 102.396 186.888 100.481 190.181C98.5666 193.473 94.3066 194.6 91.0142 192.686L32.3653 158.584C29.0729 156.67 27.9456 152.409 29.86 149.117C31.7744 145.825 36.0346 144.697 39.3272 146.612Z" fill="#707070"/>
<path d="M82.5292 113.991C82.2964 116.088 81.1368 117.868 79.5068 118.968C79.1173 119.231 78.7043 119.453 78.2659 119.632C77.2276 120.062 76.0742 120.244 74.8851 120.111L31.5022 115.307C27.7179 114.887 24.9623 111.447 25.3817 107.662C25.6147 105.565 26.7717 103.787 28.4044 102.686C29.7172 101.8 31.3386 101.355 33.0284 101.541L76.4072 106.344C77.5985 106.475 78.6865 106.908 79.6098 107.554C81.615 108.963 82.8163 111.395 82.5292 113.991Z" fill="#707070"/>
<path d="M114.693 119.649C114.617 120.177 114.126 120.545 113.595 120.469L98.106 118.236C97.5675 119.218 96.4542 119.815 95.2858 119.646L89.1166 118.756L89.0758 119.035C89.0444 119.256 88.9962 119.468 88.925 119.674C89.0974 119.813 89.2493 119.977 89.3806 120.155C89.8325 120.758 90.054 121.531 89.9384 122.334C89.9169 122.48 89.8873 122.62 89.8458 122.753L97.9041 127.645C97.9797 127.579 98.0698 127.529 98.1733 127.493L102.903 125.872C103.405 125.698 103.958 125.967 104.134 126.471C104.305 126.975 104.036 127.528 103.532 127.699L99.1032 129.223C99.0821 129.275 99.0606 129.326 99.0283 129.379C98.7707 129.803 98.2185 129.936 97.795 129.681L88.8228 124.235C88.2161 124.704 87.4243 124.938 86.6092 124.82C85.8087 124.707 85.1264 124.274 84.6788 123.671C84.3205 123.196 84.1088 122.615 84.0925 121.995C83.4086 121.744 82.8253 121.296 82.4039 120.733C82.0979 120.324 81.8754 119.855 81.7561 119.35C81.6926 119.4 81.6229 119.447 81.5533 119.494C80.2405 120.379 78.6187 120.824 76.9318 120.637C75.7404 120.506 74.6523 120.073 73.7308 119.43C71.7257 118.021 70.5242 115.588 70.8115 112.993C71.0444 110.896 72.2013 109.117 73.8314 108.018C74.2209 107.755 74.6363 107.531 75.0747 107.352C76.1128 106.922 77.2683 106.743 78.4553 106.873C80.5526 107.106 82.333 108.265 83.4323 109.895C83.4516 109.924 83.4706 109.952 83.4871 109.982C84.291 109.087 85.5136 108.597 86.7865 108.781C87.8003 108.927 88.6634 109.478 89.2389 110.242C89.8098 111.005 90.0913 111.99 89.9459 113.004L89.905 113.282L96.0742 114.172C96.8289 114.279 97.4688 114.688 97.8923 115.254C98.1269 115.569 98.2936 115.933 98.3837 116.322L113.871 118.553C114.4 118.631 114.77 119.124 114.693 119.649Z" fill="#090909"/>
<path d="M325.937 153.869L270.816 193.42C267.722 195.641 263.373 194.925 261.153 191.831C258.933 188.736 259.647 184.388 262.742 182.167L317.863 142.617C320.957 140.396 325.306 141.112 327.526 144.206C329.747 147.301 329.032 151.649 325.937 153.869Z" fill="#707070"/>
<path d="M314.146 149.543L308.658 106.243C308.18 102.465 310.879 98.9814 314.657 98.5026C318.436 98.0237 321.919 100.723 322.398 104.502L327.886 147.802C328.365 151.58 325.665 155.063 321.887 155.542C318.108 156.021 314.625 153.322 314.146 149.543Z" fill="#707070"/>
<path d="M276.098 85.3994L317.404 99.5022C321.008 100.733 322.95 104.689 321.72 108.293C320.489 111.897 316.533 113.839 312.929 112.609L271.623 98.5063C268.019 97.2756 266.077 93.3195 267.307 89.7152L267.308 89.7152C268.538 86.1112 272.494 84.1691 276.098 85.3994Z" fill="#707070"/>
<path d="M273.727 84.5589L274.122 84.5858C278.103 84.8604 281.135 88.3419 280.861 92.3226L280.834 92.7177C280.56 96.698 277.078 99.7306 273.097 99.456L272.703 99.4291C268.722 99.1548 265.689 95.6733 265.963 91.6927L265.991 91.2979C266.265 87.3169 269.747 84.2843 273.727 84.5589Z" fill="#090909"/>
<path d="M300.147 205.06H60.0755C57.3157 205.06 55.0576 202.802 55.0576 200.043C55.0576 197.283 57.3157 195.025 60.0755 195.025H300.147C302.907 195.025 305.165 197.283 305.165 200.043C305.165 202.802 302.907 205.06 300.147 205.06Z" fill="#090909"/>
<path d="M273.318 195.025H86.9047C84.1448 195.025 81.8868 192.767 81.8868 190.007V190.007C81.8868 187.247 84.1448 184.989 86.9047 184.989H273.318C276.078 184.989 278.336 187.247 278.336 190.007V190.007C278.336 192.767 276.078 195.025 273.318 195.025Z" fill="#0A0A0A"/>
<path d="M252.52 105.192L270.278 94.8406C271.154 94.3301 272.289 94.6292 272.799 95.5053L272.85 95.5924C273.361 96.468 273.061 97.6026 272.185 98.1133L254.427 108.465C253.551 108.975 252.417 108.676 251.906 107.8L251.855 107.713C251.345 106.837 251.643 105.703 252.52 105.192Z" fill="#090909"/>
<path d="M250.423 80.8715L270.113 86.7701C271.084 87.0607 271.641 88.0936 271.35 89.0647L271.322 89.1611C271.031 90.1323 269.998 90.6894 269.027 90.3983L249.336 84.5004C248.364 84.2089 247.808 83.1763 248.098 82.2051L248.128 82.1086C248.418 81.1373 249.451 80.5806 250.423 80.8715Z" fill="#090909"/>
<path d="M238.729 88.955L248.625 81.2546C249.425 80.6319 250.59 80.7772 251.212 81.5774L251.274 81.6571C251.897 82.4572 251.752 83.6215 250.951 84.2442L241.055 91.9446C240.255 92.5672 239.091 92.4222 238.468 91.6218L238.406 91.5423C237.784 90.7421 237.929 89.5777 238.729 88.955Z" fill="#090909"/>
<path d="M242.591 101.024L254.067 104.883C255.028 105.206 255.55 106.257 255.227 107.218C254.904 108.179 253.853 108.701 252.892 108.378L241.416 104.519C240.455 104.197 239.933 103.145 240.256 102.185C240.579 101.224 241.629 100.702 242.591 101.024Z" fill="#090909"/>
<path d="M102.97 127.174L104.488 124.547L107.3 125.639L107.319 123.322L109.897 124.137L110.227 121.626L112.611 121.724L113.719 119.576" stroke="#8E9EBF" stroke-width="3" stroke-linecap="round" stroke-linejoin="round"/>
<path d="M114.814 121.296C113.804 121.331 112.956 120.553 112.921 119.558C112.886 118.564 113.678 117.728 114.688 117.693C115.699 117.657 116.547 118.436 116.582 119.431C116.616 120.425 115.824 121.261 114.814 121.296Z" fill="white"/>
<path d="M113.502 119.383C113.502 119.383 110.233 118.02 106.174 116.329L113.502 119.383Z" fill="url(#paint0_radial_21_3566)"/>
<path d="M113.502 119.383C113.502 119.383 110.233 118.02 106.174 116.329" stroke="white" stroke-width="6"/>
<path d="M115.496 118.535C115.496 118.535 120.608 113.744 124.723 109.887L115.496 118.535Z" fill="url(#paint1_radial_21_3566)"/>
<path d="M115.496 118.535C115.496 118.535 120.608 113.744 124.723 109.887" stroke="white" stroke-width="6"/>
<path d="M117.738 120.324C117.738 120.324 118.879 120.978 120.296 121.789L117.738 120.324Z" fill="url(#paint2_radial_21_3566)"/>
<path d="M117.738 120.324C117.738 120.324 118.879 120.978 120.296 121.789" stroke="white" stroke-width="6"/>
<path d="M114.511 121.526C114.511 121.526 114.588 123.089 114.683 125.031L114.511 121.526Z" fill="url(#paint3_radial_21_3566)"/>
<path d="M114.511 121.526C114.511 121.526 114.588 123.089 114.683 125.031" stroke="white" stroke-width="6"/>
<path d="M113.565 116.734C113.565 116.734 113.165 115.518 112.668 114.007L113.565 116.734Z" fill="url(#paint4_radial_21_3566)"/>
<path d="M113.565 116.734C113.565 116.734 113.165 115.518 112.668 114.007" stroke="white" stroke-width="6"/>
<path d="M111.519 120.541C111.519 120.541 110.473 121.316 109.173 122.278L111.519 120.541Z" fill="url(#paint5_radial_21_3566)"/>
<path d="M111.519 120.541C111.519 120.541 110.473 121.316 109.173 122.278" stroke="white" stroke-width="6"/>
<path d="M117.983 118.448C117.983 118.448 118.893 118.237 120.023 117.975L117.983 118.448Z" fill="url(#paint6_radial_21_3566)"/>
<path d="M117.983 118.448C117.983 118.448 118.893 118.237 120.023 117.975" stroke="white" stroke-width="6"/>
</g>
</g>
<defs>
<filter id="filter0_d_21_3566" x="-25.1893" y="19.8422" width="404.007" height="239.218" filterUnits="userSpaceOnUse" color-interpolation-filters="sRGB">
<feFlood flood-opacity="0" result="BackgroundImageFix"/>
<feColorMatrix in="SourceAlpha" type="matrix" values="0 0 0 0 0 0 0 0 0 0 0 0 0 0 0 0 0 0 127 0" result="hardAlpha"/>
<feOffset dy="4"/>
<feGaussianBlur stdDeviation="25"/>
<feComposite in2="hardAlpha" operator="out"/>
<feColorMatrix type="matrix" values="0 0 0 0 0 0 0 0 0 0 0 0 0 0 0 0 0 0 0.4 0"/>
<feBlend mode="normal" in2="BackgroundImageFix" result="effect1_dropShadow_21_3566"/>
<feBlend mode="normal" in="SourceGraphic" in2="effect1_dropShadow_21_3566" result="shape"/>
</filter>
<radialGradient id="paint0_radial_21_3566" cx="0" cy="0" r="1" gradientUnits="userSpaceOnUse" gradientTransform="translate(-89.0959 27.4638) rotate(178) scale(31.1111 31.1111)">
<stop stop-color="white"/>
<stop offset="1"/>
</radialGradient>
<radialGradient id="paint1_radial_21_3566" cx="0" cy="0" r="1" gradientUnits="userSpaceOnUse" gradientTransform="translate(-89.0959 27.4637) rotate(178) scale(31.1111)">
<stop stop-color="white"/>
<stop offset="1"/>
</radialGradient>
<radialGradient id="paint2_radial_21_3566" cx="0" cy="0" r="1" gradientUnits="userSpaceOnUse" gradientTransform="translate(-89.0959 27.4636) rotate(178) scale(31.1111)">
<stop stop-color="white"/>
<stop offset="1"/>
</radialGradient>
<radialGradient id="paint3_radial_21_3566" cx="0" cy="0" r="1" gradientUnits="userSpaceOnUse" gradientTransform="translate(-89.0959 27.4637) rotate(178) scale(31.1111 31.1111)">
<stop stop-color="white"/>
<stop offset="1"/>
</radialGradient>
<radialGradient id="paint4_radial_21_3566" cx="0" cy="0" r="1" gradientUnits="userSpaceOnUse" gradientTransform="translate(-89.0959 27.4637) rotate(178) scale(31.1111 31.1111)">
<stop stop-color="white"/>
<stop offset="1"/>
</radialGradient>
<radialGradient id="paint5_radial_21_3566" cx="0" cy="0" r="1" gradientUnits="userSpaceOnUse" gradientTransform="translate(-89.0958 27.4637) rotate(178) scale(31.1111 31.1111)">
<stop stop-color="white"/>
<stop offset="1"/>
</radialGradient>
<radialGradient id="paint6_radial_21_3566" cx="0" cy="0" r="1" gradientUnits="userSpaceOnUse" gradientTransform="translate(-89.0958 27.4637) rotate(178) scale(31.1111 31.1111)">
<stop stop-color="white"/>
<stop offset="1"/>
</radialGradient>
</defs>
</svg>
